<svg width="259" height="259" viewBox="0 0 259 259" fill="none" xmlns="http://www.w3.org/2000/svg">
<path fill-rule="evenodd" clip-rule="evenodd" d="M123.995 136.006C136.704 143.048 144.096 134.944 144.096 134.944C144.096 134.944 155.118 133.572 157.193 125.575C164.8 124.532 167.075 115.013 162.147 106.929C166.494 99.532 158.468 92.8063 158.468 92.8063C162.147 83.7272 156.128 75.3199 151.112 70.9486C145.426 47.7465 132.384 50.7734 132.384 50.7734C127.117 43.7114 116.081 51.2775 109.392 60.6928C109.392 60.6928 99.9448 62.7947 102.621 71.9576C97.6043 75.3199 100.948 80.0285 100.948 80.0285C100.948 80.0285 89.4108 91.5448 95.9319 100.876C87.9061 108.779 94.2595 112.646 94.2595 112.646C94.2595 112.646 92.1692 120.464 103.958 123.742C102.202 130.552 115.273 139.191 123.995 136.006Z" fill="#F5DF4D" fill-opacity="0.85"/>
<path d="M126.167 41.5337L126.512 46.0673L124.273 47.5021C121.06 49.5106 120.314 51.0027 119.855 56.2251C119.395 60.9883 119.395 66.3254 119.797 66.7845C119.969 66.8993 121.002 66.2106 122.207 65.1777C123.413 64.2021 125.249 62.6526 126.339 61.7344C127.659 60.644 128.176 59.8405 127.946 59.2093C127.659 58.4058 127.315 58.3484 125.708 58.9223C124.675 59.2667 122.954 60.2423 121.863 61.0457C119.969 62.4804 119.912 62.4804 120.715 61.2179C121.174 60.4718 122.609 59.2667 123.872 58.5206C126.913 56.7416 127.43 55.5364 125.536 54.6756C123.987 53.9869 123.642 53.0687 124.905 53.0687C126.569 53.0687 127.545 53.8148 127.545 55.0773C127.545 56.6842 128.176 57.2007 129.209 56.5694C129.668 56.2825 129.84 55.5938 129.611 54.9051C129.209 53.6426 129.381 53.413 131.734 52.8392C132.882 52.5522 133.283 52.667 133.283 53.2983C133.283 53.7574 132.71 54.2165 132.021 54.3313C129.955 54.6182 129.955 56.799 132.021 57.8893C134.202 59.0371 137.301 61.6196 137.301 62.3082C137.301 62.6526 136.325 62.1361 135.177 61.2179C132.365 59.0945 130.012 58.1189 129.496 58.8649C128.979 59.6684 130.758 62.0787 132.595 63.0543C133.456 63.5134 134.776 64.5464 135.522 65.3498C136.268 66.1533 137.071 66.6698 137.301 66.555C137.53 66.3828 137.645 64.5464 137.473 62.423C137.358 60.2423 137.186 57.0859 137.128 55.3643C136.899 51.1175 135.579 48.822 132.652 47.5021L130.299 46.4691L130.644 41.7632L131.045 37H128.405H125.766L126.167 41.5337Z" fill="#191919"/>
<path d="M72.5092 57.4877C72.1649 58.6355 71.0171 69.195 71.0171 71.2036C71.0171 72.3513 70.2137 74.2451 68.6642 76.5407C63.9009 83.7142 59.8838 93.5276 57.9899 102.825C56.67 109.252 56.67 123.025 57.9899 129.567C62.9827 154.359 80.0271 174.847 102.868 183.685C111.418 187.013 118.994 188.333 128.979 188.391C141.375 188.391 149.352 186.669 160.6 181.447C180.858 171.977 196.181 151.892 200.428 129.166C201.576 122.796 201.576 109.482 200.37 103.226C197.157 86.1819 187.286 69.7688 173.857 59.2094C170.241 56.3974 168.405 55.9383 171.734 58.6355C184.015 68.7932 192.967 84.2307 195.263 99.2664C198.591 120.844 192.164 141.389 177.3 156.77C171.389 162.853 165.823 166.985 158.993 170.371C154.001 172.838 145.794 175.765 145.048 175.306C144.761 175.134 144.761 174.216 145.048 173.24C146.024 169.911 148.491 156.483 148.491 146.612C148.491 146.612 148.491 146.038 148.204 141.734C148.084 139.923 147.917 140.012 144.072 134.905C140.227 129.797 134.431 121.246 133.915 114.991C133.743 113.097 133.743 112.121 133.915 112.753C134.89 116.368 137.358 122.05 139.252 124.919C150.844 142.537 169.495 139.61 174.66 119.352C176.038 113.9 175.521 104.03 173.455 97.8317C169.782 86.641 161.863 78.7788 153.312 77.6884C149.295 77.1719 144.474 78.664 141.662 81.2465C140.4 82.3369 139.08 83.0829 138.621 82.9108C138.047 82.6812 137.358 83.4847 136.44 85.4359C134.259 90.0843 129.783 93.5276 125.88 93.5276C122.38 93.5276 118.362 94.8475 116.813 96.5118C115.263 98.1761 115.206 98.4056 115.206 105.235C115.206 110.916 114.977 112.638 114.058 114.704C113.025 116.942 112.968 117.344 113.714 118.492C114.173 119.18 116.985 121.017 119.912 122.509C123.47 124.345 126.167 126.182 128.004 128.075C131.332 131.633 131.734 133.699 128.405 130.486C125.479 127.616 115.723 122.566 115.091 123.542C113.944 125.263 112.222 132.035 111.935 135.765C111.418 142.709 113.025 149.366 118.362 162.394C124.331 176.798 124.503 177.315 123.068 177.315C122.609 177.315 122.954 177.028 119.797 177.315C117.789 177.315 117.444 176.741 116.928 176.741C116.698 176.741 116.067 176.454 114.058 175.88C112.824 175.527 112.548 175.406 110.615 175.019C109.18 174.732 105.45 173.871 100.859 171.576L96.6123 168.993L95.6367 163.828C91.1604 140.529 89.0944 129.969 87.6597 122.796C83.8721 103.513 83.0113 98.5778 83.2982 98.2908C83.4704 98.1187 85.5937 99.8403 88.0614 102.078C90.5291 104.374 93.8576 107.071 95.4071 108.104C98.1618 109.883 102.753 111.892 104.13 111.892C105.048 111.892 111.074 100.414 111.763 97.2005C112.509 93.9293 113.37 92.2651 114.116 92.6668C114.403 92.8963 114.632 93.585 114.632 94.2163C114.632 95.3066 114.747 95.364 115.665 94.5606C117.502 92.8963 119.281 92.3225 123.929 91.806C129.955 91.1173 132.308 89.6252 134.374 85.2063L135.923 82.0499L134.431 79.9266C133.628 78.7214 132.996 77.4015 132.996 76.9424C132.996 75.9668 134.087 72.4661 134.776 71.0314C135.809 68.9654 135.349 66.1534 133.8 64.7761C132.939 64.03 131.677 62.8249 130.873 62.0788C130.127 61.3902 129.381 60.8163 129.266 60.8163C129.151 60.8163 127.602 61.9066 125.823 63.2266C122.896 65.4073 122.609 65.8091 122.781 67.4733C122.896 68.5063 122.781 69.195 122.552 69.0802C122.322 68.908 122.093 68.3915 122.093 67.9324C122.093 67.4733 121.863 67.129 121.576 67.129C120.428 67.129 120.314 68.3915 121.289 69.8836C121.863 70.8018 122.38 71.1462 122.552 70.6871C122.954 69.4245 123.814 69.941 123.814 71.4331C123.814 72.2939 124.216 73.7286 124.733 74.6469C125.421 76.0816 125.479 76.7702 124.962 78.3771C124.618 79.4675 123.814 80.6152 123.24 80.9022C122.667 81.2465 119.912 81.4761 117.1 81.4761C110.5 81.4761 108.893 82.3943 106.655 87.4444C104.819 91.4616 102.007 99.5534 102.007 100.759C102.007 102.136 101.031 102.136 97.1288 100.701C90.5865 98.3482 88.1188 96.7987 85.9954 93.6998C84.9051 92.0929 83.2982 90.3713 82.4948 89.7974C81.2322 88.9939 80.8879 87.9609 79.9697 83.3699C79.0515 78.6067 78.9941 77.4015 79.6253 73.7286C80.1992 70.3427 80.1992 69.1376 79.6253 67.7603C79.281 66.842 79.1088 65.7517 79.3384 65.4647C79.5106 65.1204 81.7487 63.0544 84.2738 60.8163C86.7415 58.6355 88.5779 56.7991 88.2336 56.7991C87.9466 56.7991 85.5937 58.4634 83.0686 60.5293C80.5436 62.5953 78.248 64.2596 78.0185 64.2596C77.7889 64.2596 76.6985 62.5953 75.6082 60.5293C73.657 56.8565 72.9109 56.1104 72.5092 57.4877ZM74.5752 76.7702C75.3212 78.0328 77.3298 86.1245 77.3298 87.8462C77.3298 88.1331 76.9281 88.3627 76.469 88.3627C75.8951 88.3627 75.6082 88.9365 75.6082 90.3139C75.6082 92.8389 76.3542 94.8475 77.9037 96.2823C79.1662 97.4874 79.1662 97.43 85.9381 134.273C87.8319 144.833 89.7831 155.277 90.2422 157.516C92.0212 166.583 91.9638 166.64 87.6597 163.14C77.2724 154.589 69.2381 142.996 65.3357 130.83C61.3185 118.319 61.4332 101.792 65.6226 89.1087C67.5164 83.4273 72.1075 74.5895 72.9683 74.9338C73.37 75.106 74.0587 75.9094 74.5752 76.7702ZM157.96 84.0011C166.11 87.7888 172.021 98.9795 172.021 110.515C172.021 117.573 170.241 122.738 166.282 126.985C160.256 133.585 151.418 132.896 144.417 125.206C134.89 114.819 133.857 96.5118 142.179 86.9853C146.081 82.5664 152.394 81.3613 157.96 84.0011Z" fill="#191919"/>
<path d="M150.539 85.5608C147.74 86.4334 144.111 89.7013 142.179 93.5275C140.513 97.0852 140.17 98.6282 140.17 105.005C140.17 110.711 141.011 112.277 142.277 115.566C146.541 126.911 155.936 132.683 163.598 128.723C169.195 125.837 171.86 120.668 172.26 112.009C172.793 101 168.862 91.8707 161.532 87.239C158.801 85.4937 153.404 84.6882 150.539 85.5608Z" fill="#191919"/>
<path d="M135.579 68.9653C135.579 70.5722 135.751 70.9165 136.153 70.2853C136.899 69.1375 136.899 67.588 136.153 67.1289C135.809 66.8993 135.579 67.6454 135.579 68.9653Z" fill="#191919"/>
<path d="M65.6807 215.48C65.8506 215.914 65.9355 216.418 65.9355 216.992C65.9355 217.561 65.8623 218.059 65.7158 218.486C65.5752 218.914 65.3643 219.271 65.083 219.559C64.8076 219.846 64.4941 220.086 64.1426 220.279C63.791 220.467 63.3691 220.613 62.877 220.719C61.998 220.906 60.9609 221 59.7656 221H55.3711V206.876H58.9043C61.8398 206.882 63.7471 207.377 64.626 208.361C65.1064 208.9 65.3467 209.583 65.3467 210.409C65.3467 212.196 64.3447 213.21 62.3408 213.45C64.1338 213.69 65.2471 214.367 65.6807 215.48ZM63.3164 216.992C63.3164 216.5 63.2578 216.104 63.1406 215.806C63.0234 215.507 62.8682 215.27 62.6748 215.094C62.4814 214.918 62.2266 214.777 61.9102 214.672C61.3711 214.496 60.6416 214.411 59.7217 214.417H58.0605V219.225H59.4932C60.6592 219.225 61.4736 219.146 61.9365 218.987C62.4229 218.817 62.7598 218.586 62.9473 218.293C63.1934 217.918 63.3164 217.484 63.3164 216.992ZM62.7539 211.675C62.918 211.382 62.9971 211.054 62.9912 210.69C62.9912 210.327 62.9473 210.037 62.8594 209.82C62.7715 209.604 62.6396 209.428 62.4639 209.293C62.2881 209.152 62.1006 209.038 61.9014 208.95C61.6963 208.862 61.4473 208.798 61.1543 208.757C60.6445 208.687 60.0674 208.651 59.4229 208.651H58.0605V212.738H59.7217C61.3506 212.738 62.3613 212.384 62.7539 211.675ZM74.2046 219.444C74.7671 219.444 75.2535 219.368 75.6636 219.216C76.0738 219.063 76.4781 218.835 76.8765 218.53L77.4566 220.262C76.3961 220.895 75.2447 221.211 74.0025 221.211C72.3795 221.211 71.1168 220.751 70.2144 219.831C69.3121 218.911 68.8609 217.637 68.8609 216.008C68.8609 214.326 69.2593 212.967 70.0562 211.93C70.8824 210.857 72.1041 210.321 73.7213 210.321C75.0923 210.321 76.1412 210.737 76.8677 211.569C77.5943 212.401 77.9576 213.538 77.9576 214.979C77.9576 215.425 77.9488 215.858 77.9312 216.28H71.4888C71.5005 217.282 71.7291 218.062 72.1744 218.618C72.6255 219.169 73.3023 219.444 74.2046 219.444ZM75.8218 214.812C75.8218 213.008 75.1421 212.094 73.7828 212.07C73.0386 212.094 72.4761 212.369 72.0953 212.896C71.7203 213.418 71.5152 214.098 71.48 214.936H75.8218V214.812ZM86.5431 212.07C85.5529 212.07 84.7238 212.404 84.0558 213.072V221H81.4894V206.393L84.0558 205.936V211.78C84.4659 211.294 84.9054 210.931 85.3741 210.69C85.8488 210.444 86.4259 210.321 87.1056 210.321C87.7911 210.321 88.3741 210.43 88.8546 210.646C89.3351 210.857 89.7159 211.168 89.9972 211.578C90.5363 212.369 90.8058 213.471 90.8058 214.883V221H88.2394V214.751C88.2394 213.438 87.9523 212.612 87.378 212.272C87.1495 212.138 86.8712 212.07 86.5431 212.07ZM95.0143 221V210.585H97.5544V221H95.0143ZM97.7477 207.131C97.7477 207.547 97.61 207.896 97.3346 208.177C97.0593 208.452 96.7106 208.59 96.2887 208.59C95.8669 208.59 95.5212 208.455 95.2516 208.186C94.988 207.91 94.8561 207.562 94.8561 207.14C94.8561 206.718 94.9909 206.369 95.2604 206.094C95.5358 205.812 95.8815 205.672 96.2975 205.672C96.7136 205.672 97.0593 205.812 97.3346 206.094C97.61 206.369 97.7477 206.715 97.7477 207.131ZM108.531 214.391C108.531 213.617 108.41 213.037 108.17 212.65C107.93 212.264 107.534 212.07 106.984 212.07C106.439 212.07 105.949 212.188 105.516 212.422C105.082 212.656 104.748 212.935 104.514 213.257V221H101.948V210.585H103.881L104.329 212.062C104.64 211.546 105.071 211.127 105.621 210.805C106.172 210.482 106.805 210.321 107.52 210.321C108.785 210.321 109.699 210.679 110.262 211.394C110.824 212.103 111.106 213.146 111.106 214.522V221H108.531V214.391ZM120.781 212.633C120.576 212.498 120.309 212.372 119.981 212.255C119.659 212.132 119.343 212.07 119.032 212.07C118.721 212.07 118.455 212.117 118.232 212.211C118.015 212.305 117.837 212.445 117.696 212.633C117.561 212.82 117.45 213.02 117.362 213.23C117.268 213.441 117.198 213.699 117.151 214.004C117.069 214.549 117.028 215.079 117.028 215.595C117.034 216.11 117.052 216.535 117.081 216.869C117.116 217.197 117.18 217.525 117.274 217.854C117.368 218.193 117.491 218.475 117.643 218.697C117.989 219.201 118.502 219.45 119.181 219.444C120.172 219.444 120.948 219.104 121.511 218.425V213.178C121.229 212.949 120.986 212.768 120.781 212.633ZM115.068 218.847C114.863 218.354 114.714 217.833 114.62 217.282C114.532 216.726 114.488 216.113 114.488 215.445C114.488 214.777 114.573 214.139 114.743 213.529C114.913 212.914 115.159 212.366 115.481 211.886C115.809 211.405 116.231 211.024 116.747 210.743C117.268 210.462 117.851 210.321 118.496 210.321C119.773 210.321 120.778 210.784 121.511 211.71V206.34L124.077 205.953V221H122.24L121.73 219.471C121.472 219.975 121.074 220.391 120.535 220.719C119.996 221.047 119.404 221.211 118.76 221.211C118.115 221.211 117.55 221.111 117.063 220.912C116.583 220.713 116.181 220.443 115.859 220.104C115.543 219.758 115.279 219.339 115.068 218.847Z" fill="#F8F8F8"/>
<path d="M65.6807 215.48L64.7488 215.843L64.7496 215.845L65.6807 215.48ZM65.7158 218.486L64.7697 218.162L64.7658 218.174L65.7158 218.486ZM65.083 219.559L64.3686 218.859L64.3613 218.866L65.083 219.559ZM64.1426 220.279L64.6132 221.162L64.6245 221.156L64.1426 220.279ZM62.877 220.719L63.0856 221.697L63.0865 221.697L62.877 220.719ZM55.3711 221H54.3711V222H55.3711V221ZM55.3711 206.876V205.876H54.3711V206.876H55.3711ZM58.9043 206.876L58.9063 205.876H58.9043V206.876ZM64.626 208.361L65.3725 207.696L65.3719 207.695L64.626 208.361ZM62.3408 213.45L62.2218 212.457L62.208 214.441L62.3408 213.45ZM61.9102 214.672L62.2264 213.723L62.2202 213.721L61.9102 214.672ZM59.7217 214.417V215.417L59.728 215.417L59.7217 214.417ZM58.0605 214.417V213.417H57.0605V214.417H58.0605ZM58.0605 219.225H57.0605V220.225H58.0605V219.225ZM61.9365 218.987L62.2599 219.934L62.2664 219.931L61.9365 218.987ZM62.9473 218.293L62.1112 217.744L62.105 217.754L62.9473 218.293ZM62.7539 211.675L61.8814 211.186L61.8791 211.19L62.7539 211.675ZM62.9912 210.69H61.9912V210.698L61.9913 210.707L62.9912 210.69ZM62.4639 209.293L61.8392 210.074L61.8472 210.08L61.8554 210.087L62.4639 209.293ZM61.9014 208.95L62.305 208.035L62.2953 208.031L61.9014 208.95ZM61.1543 208.757L61.2929 207.766L61.2909 207.766L61.1543 208.757ZM58.0605 208.651V207.651H57.0605V208.651H58.0605ZM58.0605 212.738H57.0605V213.738H58.0605V212.738ZM64.7496 215.845C64.8647 216.139 64.9355 216.515 64.9355 216.992H66.9355C66.9355 216.321 66.8365 215.689 66.6117 215.116L64.7496 215.845ZM64.9355 216.992C64.9355 217.477 64.8727 217.862 64.7698 218.162L66.6619 218.81C66.8519 218.255 66.9355 217.644 66.9355 216.992H64.9355ZM64.7658 218.174C64.6672 218.474 64.5304 218.694 64.3686 218.859L65.7974 220.258C66.1981 219.849 66.4831 219.354 66.6658 218.799L64.7658 218.174ZM64.3613 218.866C64.1567 219.08 63.9242 219.258 63.6607 219.403L64.6245 221.156C65.0641 220.914 65.4586 220.612 65.8047 220.251L64.3613 218.866ZM63.672 219.397C63.4208 219.531 63.0913 219.65 62.6674 219.741L63.0865 221.697C63.647 221.576 64.1612 221.403 64.6132 221.162L63.672 219.397ZM62.6683 219.741C61.8762 219.91 60.9123 220 59.7656 220V222C61.0096 222 62.1199 221.903 63.0856 221.697L62.6683 219.741ZM59.7656 220H55.3711V222H59.7656V220ZM56.3711 221V206.876H54.3711V221H56.3711ZM55.3711 207.876H58.9043V205.876H55.3711V207.876ZM58.9023 207.876C60.3227 207.879 61.4421 208.001 62.2851 208.22C63.1362 208.441 63.622 208.738 63.88 209.027L65.3719 207.695C64.751 207 63.8438 206.558 62.7876 206.284C61.7234 206.008 60.4214 205.879 58.9063 205.876L58.9023 207.876ZM63.8795 209.027C64.1732 209.356 64.3467 209.791 64.3467 210.409H66.3467C66.3467 209.375 66.0397 208.445 65.3725 207.696L63.8795 209.027ZM64.3467 210.409C64.3467 211.11 64.1558 211.532 63.884 211.807C63.5964 212.098 63.0907 212.353 62.2218 212.457L62.4599 214.443C63.5949 214.307 64.592 213.935 65.3064 213.213C66.0366 212.474 66.3467 211.496 66.3467 210.409H64.3467ZM62.208 214.441C63.8427 214.66 64.5078 215.225 64.7488 215.843L66.6125 215.118C65.9863 213.51 64.4249 212.72 62.4736 212.459L62.208 214.441ZM64.3164 216.992C64.3164 216.435 64.252 215.901 64.0716 215.441L62.2097 216.171C62.2636 216.308 62.3164 216.565 62.3164 216.992H64.3164ZM64.0716 215.441C63.9109 215.031 63.6776 214.654 63.3475 214.354L62.0021 215.834C62.0587 215.885 62.136 215.983 62.2097 216.171L64.0716 215.441ZM63.3475 214.354C63.0269 214.062 62.6397 213.861 62.2264 213.723L61.5939 215.621C61.8134 215.694 61.936 215.774 62.0021 215.834L63.3475 214.354ZM62.2202 213.721C61.5354 213.498 60.6845 213.411 59.7153 213.417L59.728 215.417C60.5987 215.411 61.2067 215.494 61.6001 215.623L62.2202 213.721ZM59.7217 213.417H58.0605V215.417H59.7217V213.417ZM57.0605 214.417V219.225H59.0605V214.417H57.0605ZM58.0605 220.225H59.4932V218.225H58.0605V220.225ZM59.4932 220.225C60.6589 220.225 61.6239 220.151 62.2599 219.934L61.6131 218.041C61.3233 218.14 60.6595 218.225 59.4932 218.225V220.225ZM62.2664 219.931C62.8664 219.722 63.4355 219.385 63.7895 218.832L62.105 217.754C62.0841 217.787 61.9793 217.913 61.6067 218.043L62.2664 219.931ZM63.7833 218.842C64.1467 218.288 64.3164 217.66 64.3164 216.992H62.3164C62.3164 217.309 62.24 217.548 62.1112 217.744L63.7833 218.842ZM63.6264 212.163C63.8838 211.704 63.9995 211.199 63.9911 210.674L61.9913 210.707C61.9946 210.908 61.9522 211.06 61.8814 211.186L63.6264 212.163ZM63.9912 210.69C63.9912 210.262 63.9416 209.828 63.7861 209.445L61.9326 210.196C61.9529 210.246 61.9912 210.392 61.9912 210.69H63.9912ZM63.7861 209.445C63.6352 209.072 63.3976 208.749 63.0723 208.499L61.8554 210.087C61.8817 210.107 61.9078 210.135 61.9326 210.196L63.7861 209.445ZM63.0886 208.512C62.8475 208.319 62.586 208.159 62.305 208.035L61.4977 209.865C61.6151 209.917 61.7287 209.985 61.8392 210.074L63.0886 208.512ZM62.2953 208.031C61.9871 207.899 61.6471 207.816 61.2929 207.766L61.0156 209.747C61.2474 209.78 61.4055 209.826 61.5074 209.869L62.2953 208.031ZM61.2909 207.766C60.7263 207.688 60.1022 207.651 59.4229 207.651V209.651C60.0325 209.651 60.5628 209.685 61.0177 209.747L61.2909 207.766ZM59.4229 207.651H58.0605V209.651H59.4229V207.651ZM57.0605 208.651V212.738H59.0605V208.651H57.0605ZM58.0605 213.738H59.7217V211.738H58.0605V213.738ZM59.7217 213.738C60.5964 213.738 61.3804 213.645 62.0324 213.416C62.6934 213.184 63.2797 212.79 63.6287 212.159L61.8791 211.19C61.8355 211.269 61.7202 211.406 61.3705 211.529C61.0117 211.655 60.4759 211.738 59.7217 211.738V213.738ZM76.8765 218.53L77.8247 218.213L77.3803 216.886L76.2691 217.736L76.8765 218.53ZM77.4566 220.262L77.969 221.12L78.6607 220.708L78.4048 219.944L77.4566 220.262ZM70.0562 211.93L69.2641 211.319L69.2633 211.32L70.0562 211.93ZM77.9312 216.28V217.28H78.8904L78.9303 216.322L77.9312 216.28ZM71.4888 216.28V215.28H70.4771L70.4889 216.292L71.4888 216.28ZM72.1744 218.618L71.3935 219.243L71.4008 219.252L72.1744 218.618ZM73.7828 212.07L73.8 211.07L73.7756 211.07L73.7513 211.071L73.7828 212.07ZM72.0953 212.896L71.2846 212.311L71.2834 212.313L72.0953 212.896ZM71.48 214.936L70.4809 214.894L70.4372 215.936H71.48V214.936ZM75.8218 214.936V215.936H76.8218V214.936H75.8218ZM74.2046 220.444C74.8537 220.444 75.4635 220.357 76.0118 220.153L75.3154 218.278C75.0434 218.379 74.6806 218.444 74.2046 218.444V220.444ZM76.0118 220.153C76.5275 219.962 77.018 219.681 77.484 219.325L76.2691 217.736C75.9382 217.989 75.6201 218.165 75.3154 218.278L76.0118 220.153ZM75.9283 218.848L76.5084 220.579L78.4048 219.944L77.8247 218.213L75.9283 218.848ZM76.9442 219.403C76.0395 219.943 75.0654 220.211 74.0025 220.211V222.211C75.424 222.211 76.7526 221.846 77.969 221.12L76.9442 219.403ZM74.0025 220.211C72.5744 220.211 71.5966 219.812 70.9283 219.131L69.5005 220.531C70.6369 221.69 72.1846 222.211 74.0025 222.211V220.211ZM70.9283 219.131C70.2546 218.444 69.8609 217.447 69.8609 216.008H67.8609C67.8609 217.826 68.3696 219.378 69.5005 220.531L70.9283 219.131ZM69.8609 216.008C69.8609 214.483 70.2207 213.357 70.8492 212.539L69.2633 211.32C68.298 212.577 67.8609 214.169 67.8609 216.008H69.8609ZM70.8484 212.54C71.4474 211.763 72.3466 211.321 73.7213 211.321V209.321C71.8615 209.321 70.3174 209.952 69.2641 211.319L70.8484 212.54ZM73.7213 211.321C74.879 211.321 75.6224 211.664 76.1145 212.227L77.621 210.912C76.66 209.811 75.3057 209.321 73.7213 209.321V211.321ZM76.1145 212.227C76.6386 212.827 76.9576 213.705 76.9576 214.979H78.9576C78.9576 213.371 78.55 211.975 77.621 210.912L76.1145 212.227ZM76.9576 214.979C76.9576 215.412 76.949 215.831 76.9321 216.239L78.9303 216.322C78.9485 215.885 78.9576 215.438 78.9576 214.979H76.9576ZM77.9312 215.28H71.4888V217.28H77.9312V215.28ZM70.4889 216.292C70.5022 217.428 70.7621 218.454 71.3935 219.243L72.9552 217.993C72.696 217.669 72.4989 217.136 72.4888 216.269L70.4889 216.292ZM71.4008 219.252C72.0909 220.094 73.0897 220.444 74.2046 220.444V218.444C73.5149 218.444 73.1602 218.244 72.948 217.984L71.4008 219.252ZM76.8218 214.812C76.8218 213.812 76.6381 212.881 76.1145 212.177C75.5529 211.421 74.7225 211.086 73.8 211.07L73.7655 213.07C74.2024 213.078 74.3916 213.211 74.5096 213.37C74.6657 213.58 74.8218 214.008 74.8218 214.812H76.8218ZM73.7513 211.071C72.7481 211.102 71.8748 211.494 71.2846 212.311L72.906 213.482C73.0775 213.244 73.3292 213.085 73.8143 213.07L73.7513 211.071ZM71.2834 212.313C70.7644 213.034 70.5218 213.919 70.4809 214.894L72.4792 214.977C72.5086 214.276 72.6762 213.801 72.9072 213.48L71.2834 212.313ZM71.48 215.936H75.8218V213.936H71.48V215.936ZM76.8218 214.936V214.812H74.8218V214.936H76.8218ZM84.0558 213.072L83.3487 212.365L83.0558 212.658V213.072H84.0558ZM84.0558 221V222H85.0558V221H84.0558ZM81.4894 221H80.4894V222H81.4894V221ZM81.4894 206.393L81.3141 205.408L80.4894 205.555V206.393H81.4894ZM84.0558 205.936H85.0558V204.742L83.8805 204.951L84.0558 205.936ZM84.0558 211.78H83.0558V214.517L84.8202 212.425L84.0558 211.78ZM85.3741 210.69L85.8302 211.58L85.8345 211.578L85.3741 210.69ZM88.8546 210.646L88.4433 211.558L88.4526 211.562L88.8546 210.646ZM89.9972 211.578L90.8235 211.015L90.8219 211.013L89.9972 211.578ZM90.8058 221V222H91.8058V221H90.8058ZM88.2394 221H87.2394V222H88.2394V221ZM87.378 212.272L87.8874 211.412L87.886 211.411L87.378 212.272ZM86.5431 211.07C85.3019 211.07 84.214 211.5 83.3487 212.365L84.7629 213.779C85.2335 213.309 85.8038 213.07 86.5431 213.07V211.07ZM83.0558 213.072V221H85.0558V213.072H83.0558ZM84.0558 220H81.4894V222H84.0558V220ZM82.4894 221V206.393H80.4894V221H82.4894ZM81.6647 207.377L84.2311 206.92L83.8805 204.951L81.3141 205.408L81.6647 207.377ZM83.0558 205.936V211.78H85.0558V205.936H83.0558ZM84.8202 212.425C85.1622 212.019 85.5013 211.749 85.8302 211.58L84.9181 209.8C84.3095 210.112 83.7696 210.568 83.2913 211.136L84.8202 212.425ZM85.8345 211.578C86.1335 211.423 86.5438 211.321 87.1056 211.321V209.321C86.308 209.321 85.564 209.466 84.9138 209.803L85.8345 211.578ZM87.1056 211.321C87.6901 211.321 88.1248 211.414 88.4433 211.558L89.2659 209.735C88.6235 209.445 87.8921 209.321 87.1056 209.321V211.321ZM88.4526 211.562C88.7721 211.702 89.0026 211.896 89.1725 212.144L90.8219 211.013C90.4292 210.44 89.898 210.012 89.2566 209.731L88.4526 211.562ZM89.1708 212.141C89.5548 212.705 89.8058 213.581 89.8058 214.883H91.8058C91.8058 213.36 91.5177 212.034 90.8235 211.015L89.1708 212.141ZM89.8058 214.883V221H91.8058V214.883H89.8058ZM90.8058 220H88.2394V222H90.8058V220ZM89.2394 221V214.751H87.2394V221H89.2394ZM89.2394 214.751C89.2394 213.411 88.9681 212.051 87.8874 211.412L86.8687 213.133C86.9365 213.173 87.2394 213.466 87.2394 214.751H89.2394ZM87.886 211.411C87.471 211.166 87.0079 211.07 86.5431 211.07V213.07C86.7346 213.07 86.828 213.109 86.8701 213.134L87.886 211.411ZM95.0143 221H94.0143V222H95.0143V221ZM95.0143 210.585V209.585H94.0143V210.585H95.0143ZM97.5544 210.585H98.5544V209.585H97.5544V210.585ZM97.5544 221V222H98.5544V221H97.5544ZM97.3346 208.177L98.0418 208.884L98.0492 208.876L97.3346 208.177ZM95.2516 208.186L94.5293 208.877L94.5368 208.885L94.5445 208.893L95.2516 208.186ZM95.2604 206.094L94.5459 205.394L94.5458 205.394L95.2604 206.094ZM97.3346 206.094L96.6201 206.793L96.6275 206.801L97.3346 206.094ZM96.0143 221V210.585H94.0143V221H96.0143ZM95.0143 211.585H97.5544V209.585H95.0143V211.585ZM96.5544 210.585V221H98.5544V210.585H96.5544ZM97.5544 220H95.0143V222H97.5544V220ZM96.7477 207.131C96.7477 207.302 96.7013 207.394 96.6201 207.477L98.0492 208.876C98.5188 208.397 98.7477 207.792 98.7477 207.131H96.7477ZM96.6275 207.47C96.5562 207.541 96.4698 207.59 96.2887 207.59V209.59C96.9515 209.59 97.5623 209.363 98.0418 208.884L96.6275 207.47ZM96.2887 207.59C96.101 207.59 96.0199 207.54 95.9587 207.478L94.5445 208.893C95.0225 209.371 95.6327 209.59 96.2887 209.59V207.59ZM95.9739 207.494C95.9081 207.425 95.8561 207.334 95.8561 207.14H93.8561C93.8561 207.789 94.0678 208.395 94.5293 208.877L95.9739 207.494ZM95.8561 207.14C95.8561 206.952 95.9066 206.863 95.9751 206.793L94.5458 205.394C94.0752 205.875 93.8561 206.483 93.8561 207.14H95.8561ZM95.9749 206.793C96.0506 206.716 96.1333 206.672 96.2975 206.672V204.672C95.6297 204.672 95.021 204.909 94.5459 205.394L95.9749 206.793ZM96.2975 206.672C96.4617 206.672 96.5445 206.716 96.6201 206.793L98.0492 205.394C97.5741 204.909 96.9654 204.672 96.2975 204.672V206.672ZM96.6275 206.801C96.7017 206.875 96.7477 206.96 96.7477 207.131H98.7477C98.7477 206.47 98.5184 205.863 98.0418 205.387L96.6275 206.801ZM104.514 213.257L103.705 212.669L103.514 212.932V213.257H104.514ZM104.514 221V222H105.514V221H104.514ZM101.948 221H100.948V222H101.948V221ZM101.948 210.585V209.585H100.948V210.585H101.948ZM103.881 210.585L104.838 210.294L104.623 209.585H103.881V210.585ZM104.329 212.062L103.372 212.352L104.026 214.504L105.186 212.577L104.329 212.062ZM110.262 211.394L109.476 212.012L109.479 212.015L110.262 211.394ZM111.106 221V222H112.106V221H111.106ZM108.531 221H107.531V222H108.531V221ZM109.531 214.391C109.531 213.546 109.405 212.743 109.02 212.123L107.321 213.178C107.416 213.331 107.531 213.688 107.531 214.391H109.531ZM109.02 212.123C108.556 211.377 107.796 211.07 106.984 211.07V213.07C107.144 213.07 107.223 213.099 107.254 213.114C107.277 213.125 107.296 213.139 107.321 213.178L109.02 212.123ZM106.984 211.07C106.291 211.07 105.635 211.221 105.04 211.542L105.991 213.302C106.264 213.154 106.587 213.07 106.984 213.07V211.07ZM105.04 211.542C104.506 211.831 104.046 212.2 103.705 212.669L105.323 213.845C105.451 213.669 105.659 213.481 105.991 213.302L105.04 211.542ZM103.514 213.257V221H105.514V213.257H103.514ZM104.514 220H101.948V222H104.514V220ZM102.948 221V210.585H100.948V221H102.948ZM101.948 211.585H103.881V209.585H101.948V211.585ZM102.924 210.875L103.372 212.352L105.286 211.771L104.838 210.294L102.924 210.875ZM105.186 212.577C105.405 212.214 105.711 211.911 106.126 211.668L105.116 209.942C104.43 210.343 103.875 210.878 103.473 211.546L105.186 212.577ZM106.126 211.668C106.506 211.446 106.961 211.321 107.52 211.321V209.321C106.649 209.321 105.838 209.519 105.116 209.942L106.126 211.668ZM107.52 211.321C108.606 211.321 109.17 211.623 109.476 212.012L111.048 210.775C110.229 209.735 108.965 209.321 107.52 209.321V211.321ZM109.479 212.015C109.844 212.476 110.106 213.259 110.106 214.522H112.106C112.106 213.032 111.805 211.729 111.045 210.772L109.479 212.015ZM110.106 214.522V221H112.106V214.522H110.106ZM111.106 220H108.531V222H111.106V220ZM109.531 221V214.391H107.531V221H109.531ZM119.981 212.255L119.625 213.189L119.635 213.193L119.645 213.197L119.981 212.255ZM118.232 212.211L117.844 211.289L117.835 211.293L118.232 212.211ZM117.696 212.633L116.896 212.033L116.89 212.041L116.884 212.049L117.696 212.633ZM117.362 213.23L118.276 213.637L118.281 213.626L118.285 213.615L117.362 213.23ZM117.151 214.004L116.163 213.852L116.162 213.855L117.151 214.004ZM117.028 215.595H116.028L116.028 215.606L117.028 215.595ZM117.081 216.869L116.085 216.957L116.086 216.966L116.087 216.976L117.081 216.869ZM117.274 217.854L118.238 217.588L118.236 217.579L117.274 217.854ZM117.643 218.697L116.818 219.262L116.819 219.263L117.643 218.697ZM119.181 219.444V218.444L119.173 218.444L119.181 219.444ZM121.511 218.425L122.281 219.062L122.511 218.785V218.425H121.511ZM121.511 213.178H122.511V212.702L122.141 212.402L121.511 213.178ZM115.068 218.847L114.145 219.231L114.149 219.241L115.068 218.847ZM114.62 217.282L113.632 217.438L113.634 217.45L114.62 217.282ZM114.743 213.529L115.706 213.798L115.707 213.796L114.743 213.529ZM115.481 211.886L114.655 211.322L114.651 211.329L115.481 211.886ZM116.747 210.743L116.272 209.863L116.268 209.865L116.747 210.743ZM121.511 211.71L120.726 212.33L122.511 214.586V211.71H121.511ZM121.511 206.34L121.362 205.351L120.511 205.479V206.34H121.511ZM124.077 205.953H125.077V204.791L123.928 204.964L124.077 205.953ZM124.077 221V222H125.077V221H124.077ZM122.24 221L121.291 221.316L121.519 222H122.24V221ZM121.73 219.471L122.679 219.154L121.925 216.894L120.84 219.015L121.73 219.471ZM117.063 220.912L116.68 221.836L116.684 221.837L117.063 220.912ZM115.859 220.104L115.122 220.779L115.127 220.785L115.134 220.792L115.859 220.104ZM121.33 211.797C121.037 211.605 120.692 211.447 120.318 211.313L119.645 213.197C119.927 213.297 120.115 213.391 120.232 213.469L121.33 211.797ZM120.338 211.321C119.914 211.159 119.477 211.07 119.032 211.07V213.07C119.208 213.07 119.404 213.105 119.625 213.189L120.338 211.321ZM119.032 211.07C118.625 211.07 118.219 211.131 117.844 211.289L118.62 213.133C118.69 213.103 118.818 213.07 119.032 213.07V211.07ZM117.835 211.293C117.46 211.455 117.142 211.705 116.896 212.033L118.496 213.233C118.531 213.186 118.571 213.154 118.629 213.129L117.835 211.293ZM116.884 212.049C116.705 212.298 116.557 212.564 116.439 212.846L118.285 213.615C118.343 213.475 118.417 213.343 118.508 213.216L116.884 212.049ZM116.448 212.824C116.309 213.138 116.219 213.487 116.163 213.852L118.14 214.156C118.177 213.912 118.228 213.745 118.276 213.637L116.448 212.824ZM116.162 213.855C116.073 214.446 116.028 215.026 116.028 215.595H118.028C118.028 215.132 118.065 214.652 118.14 214.153L116.162 213.855ZM116.028 215.606C116.034 216.135 116.052 216.588 116.085 216.957L118.077 216.782C118.051 216.483 118.034 216.086 118.028 215.583L116.028 215.606ZM116.087 216.976C116.128 217.363 116.204 217.747 116.313 218.128L118.236 217.579C118.157 217.304 118.104 217.032 118.075 216.763L116.087 216.976ZM116.31 218.119C116.425 218.535 116.587 218.925 116.818 219.262L118.469 218.133C118.395 218.024 118.311 217.852 118.238 217.588L116.31 218.119ZM116.819 219.263C117.376 220.076 118.222 220.453 119.19 220.444L119.173 218.444C118.782 218.448 118.602 218.327 118.468 218.132L116.819 219.263ZM119.181 220.444C120.429 220.444 121.504 220.002 122.281 219.062L120.74 217.787C120.392 218.207 119.915 218.444 119.181 218.444V220.444ZM122.511 218.425V213.178H120.511V218.425H122.511ZM122.141 212.402C121.845 212.161 121.573 211.957 121.33 211.797L120.232 213.469C120.399 213.578 120.614 213.738 120.88 213.954L122.141 212.402ZM115.991 218.462C115.817 218.043 115.687 217.594 115.606 217.114L113.634 217.45C113.74 218.072 113.91 218.666 114.145 219.231L115.991 218.462ZM115.608 217.126C115.529 216.63 115.488 216.07 115.488 215.445H113.488C113.488 216.156 113.535 216.822 113.632 217.438L115.608 217.126ZM115.488 215.445C115.488 214.863 115.562 214.315 115.706 213.798L113.78 213.261C113.584 213.962 113.488 214.692 113.488 215.445H115.488ZM115.707 213.796C115.851 213.273 116.055 212.825 116.312 212.443L114.651 211.329C114.263 211.907 113.975 212.555 113.779 213.263L115.707 213.796ZM116.307 212.45C116.545 212.101 116.848 211.827 117.226 211.621L116.268 209.865C115.615 210.222 115.074 210.709 114.655 211.322L116.307 212.45ZM117.222 211.623C117.585 211.428 118.002 211.321 118.496 211.321V209.321C117.701 209.321 116.952 209.496 116.272 209.863L117.222 211.623ZM118.496 211.321C119.496 211.321 120.201 211.666 120.726 212.33L122.295 211.09C121.356 209.902 120.05 209.321 118.496 209.321V211.321ZM122.511 211.71V206.34H120.511V211.71H122.511ZM121.66 207.329L124.226 206.942L123.928 204.964L121.362 205.351L121.66 207.329ZM123.077 205.953V221H125.077V205.953H123.077ZM124.077 220H122.24V222H124.077V220ZM123.189 220.684L122.679 219.154L120.782 219.787L121.291 221.316L123.189 220.684ZM120.84 219.015C120.676 219.336 120.415 219.621 120.015 219.865L121.055 221.573C121.733 221.16 122.269 220.613 122.621 219.926L120.84 219.015ZM120.015 219.865C119.636 220.095 119.225 220.211 118.76 220.211V222.211C119.583 222.211 120.356 221.999 121.055 221.573L120.015 219.865ZM118.76 220.211C118.216 220.211 117.784 220.127 117.442 219.987L116.684 221.837C117.315 222.096 118.014 222.211 118.76 222.211V220.211ZM117.446 219.988C117.081 219.837 116.8 219.643 116.585 219.415L115.134 220.792C115.562 221.244 116.085 221.589 116.68 221.836L117.446 219.988ZM116.597 219.428C116.366 219.176 116.16 218.856 115.987 218.453L114.149 219.241C114.398 219.822 114.719 220.339 115.122 220.779L116.597 219.428Z" fill="#191919"/>
<rect x="134.5" y="204.5" width="2" height="18" fill="#F5F5F5" stroke="#191919"/>
<path d="M156.594 206.876L158.757 218.091L161.007 206.876H163.599L160.541 221.018H157.227L155.056 209.24L152.745 221H149.554L146.505 206.876H149.097L151.339 218.091L153.501 206.876H156.594ZM172.607 214.769C172.607 213.597 172.463 212.853 172.176 212.536C171.895 212.226 171.447 212.07 170.831 212.07C169.659 212.07 168.552 212.375 167.509 212.984L166.815 211.385C168.01 210.676 169.369 210.321 170.893 210.321C172.487 210.327 173.606 210.729 174.25 211.525C174.86 212.287 175.164 213.494 175.164 215.146V221H173.196L172.844 219.559C172.481 220.109 172.059 220.522 171.578 220.798C171.104 221.073 170.494 221.211 169.75 221.211C168.614 221.211 167.729 220.924 167.096 220.35C166.469 219.775 166.156 218.938 166.156 217.836C166.161 216.266 166.95 215.246 168.52 214.777C168.977 214.637 169.487 214.558 170.049 214.54C170.963 214.54 171.816 214.616 172.607 214.769ZM172.607 216.069L172 216.008L171.614 215.973C171.438 215.961 171.256 215.955 171.069 215.955C170.887 215.955 170.679 215.967 170.445 215.99C170.21 216.014 169.979 216.063 169.75 216.14C169.528 216.21 169.346 216.307 169.205 216.43C168.889 216.699 168.731 217.104 168.731 217.643C168.731 218.844 169.29 219.444 170.409 219.444C170.872 219.444 171.274 219.351 171.614 219.163C171.959 218.97 172.29 218.703 172.607 218.363V216.069ZM181.799 221H179.215V206.34L181.799 205.953V221ZM188.706 221H186.122V206.34L188.706 205.953V221ZM196.184 219.444C197.35 219.444 197.933 218.99 197.933 218.082C197.938 217.754 197.801 217.49 197.52 217.291C197.273 217.115 196.992 216.975 196.676 216.869L194.628 216.078C193.521 215.668 192.832 215.076 192.562 214.303C192.451 213.986 192.396 213.603 192.396 213.151C192.396 212.7 192.498 212.287 192.703 211.912C192.914 211.531 193.201 211.227 193.564 210.998C194.285 210.547 195.193 210.321 196.289 210.321C196.986 210.321 197.687 210.406 198.39 210.576C199.093 210.74 199.632 210.966 200.007 211.253L199.427 212.905C199.11 212.671 198.656 212.475 198.064 212.316C197.479 212.152 196.919 212.07 196.386 212.07C195.243 212.07 194.672 212.451 194.672 213.213C194.672 213.506 194.777 213.729 194.988 213.881C195.24 214.062 195.489 214.183 195.735 214.241L197.423 214.865C198.53 215.264 199.292 215.715 199.708 216.219C200.112 216.699 200.314 217.247 200.314 217.862C200.314 218.478 200.212 218.996 200.007 219.418C199.802 219.84 199.518 220.18 199.154 220.438C198.434 220.953 197.484 221.211 196.307 221.211C195.562 221.211 194.836 221.12 194.127 220.938C193.418 220.757 192.858 220.514 192.448 220.209L193.028 218.53C193.345 218.776 193.816 218.99 194.443 219.172C195.07 219.354 195.65 219.444 196.184 219.444Z" fill="#F8F8F8"/>
<path d="M156.594 206.876L157.576 206.687L157.42 205.876H156.594V206.876ZM158.757 218.091L157.775 218.28L159.737 218.288L158.757 218.091ZM161.007 206.876V205.876H160.187L160.026 206.679L161.007 206.876ZM163.599 206.876L164.577 207.087L164.839 205.876H163.599V206.876ZM160.541 221.018V222.018H161.348L161.518 221.229L160.541 221.018ZM157.227 221.018L156.244 221.199L156.395 222.018H157.227V221.018ZM155.056 209.24L156.04 209.059L154.075 209.047L155.056 209.24ZM152.745 221V222H153.567L153.726 221.193L152.745 221ZM149.554 221L148.577 221.211L148.747 222H149.554V221ZM146.505 206.876V205.876H145.266L145.527 207.087L146.505 206.876ZM149.097 206.876L150.078 206.68L149.917 205.876H149.097V206.876ZM151.339 218.091L150.358 218.287L152.321 218.28L151.339 218.091ZM153.501 206.876V205.876H152.675L152.519 206.687L153.501 206.876ZM155.613 207.065L157.775 218.28L159.739 217.902L157.576 206.687L155.613 207.065ZM159.737 218.288L161.987 207.073L160.026 206.679L157.776 217.894L159.737 218.288ZM161.007 207.876H163.599V205.876H161.007V207.876ZM162.622 206.665L159.563 220.806L161.518 221.229L164.577 207.087L162.622 206.665ZM160.541 220.018H157.227V222.018H160.541V220.018ZM158.211 220.836L156.04 209.059L154.073 209.422L156.244 221.199L158.211 220.836ZM154.075 209.047L151.764 220.807L153.726 221.193L156.038 209.433L154.075 209.047ZM152.745 220H149.554V222H152.745V220ZM150.532 220.789L147.482 206.665L145.527 207.087L148.577 221.211L150.532 220.789ZM146.505 207.876H149.097V205.876H146.505V207.876ZM148.117 207.072L150.358 218.287L152.319 217.895L150.078 206.68L148.117 207.072ZM152.321 218.28L154.483 207.065L152.519 206.687L150.357 217.902L152.321 218.28ZM153.501 207.876H156.594V205.876H153.501V207.876ZM172.607 214.769L172.418 215.751L173.607 215.98V214.769H172.607ZM172.176 212.536L171.435 213.207L171.436 213.208L172.176 212.536ZM167.509 212.984L166.592 213.383L167.041 214.416L168.014 213.848L167.509 212.984ZM166.815 211.385L166.305 210.525L165.546 210.974L165.897 211.783L166.815 211.385ZM170.893 210.321L170.897 209.321H170.893V210.321ZM174.25 211.525L175.031 210.901L175.028 210.897L174.25 211.525ZM175.164 221V222H176.164V221H175.164ZM173.196 221L172.224 221.237L172.41 222H173.196V221ZM172.844 219.559L173.816 219.322L173.272 217.093L172.009 219.008L172.844 219.559ZM171.578 220.798L171.081 219.93L171.077 219.933L171.578 220.798ZM167.096 220.35L166.421 221.087L166.424 221.09L167.096 220.35ZM166.156 217.836L165.156 217.832V217.836H166.156ZM168.52 214.777L168.806 215.736L168.814 215.733L168.52 214.777ZM170.049 214.54V213.54H170.034L170.018 213.541L170.049 214.54ZM172.607 216.069H173.607V215.166L172.708 215.074L172.607 216.069ZM172 216.008L172.101 215.013L172.091 215.012L172 216.008ZM171.614 215.973L171.704 214.977L171.692 214.976L171.68 214.975L171.614 215.973ZM169.75 216.14L170.051 217.093L170.059 217.091L170.067 217.088L169.75 216.14ZM169.205 216.43L169.854 217.191L169.864 217.182L169.205 216.43ZM171.614 219.163L172.097 220.039L172.102 220.036L171.614 219.163ZM172.607 218.363L173.339 219.045L173.607 218.757V218.363H172.607ZM173.607 214.769C173.607 214.149 173.569 213.601 173.481 213.142C173.398 212.711 173.246 212.227 172.917 211.864L171.436 213.208C171.394 213.162 171.457 213.208 171.517 213.521C171.572 213.807 171.607 214.216 171.607 214.769H173.607ZM172.917 211.865C172.372 211.263 171.595 211.07 170.831 211.07V213.07C171.298 213.07 171.418 213.188 171.435 213.207L172.917 211.865ZM170.831 211.07C169.477 211.07 168.196 211.425 167.005 212.121L168.014 213.848C168.908 213.325 169.842 213.07 170.831 213.07V211.07ZM168.426 212.586L167.732 210.987L165.897 211.783L166.592 213.383L168.426 212.586ZM167.325 212.245C168.351 211.636 169.531 211.321 170.893 211.321V209.321C169.208 209.321 167.669 209.715 166.305 210.525L167.325 212.245ZM170.889 211.321C172.35 211.327 173.102 211.696 173.473 212.154L175.028 210.897C174.109 209.761 172.623 209.328 170.897 209.321L170.889 211.321ZM173.469 212.15C173.868 212.648 174.164 213.578 174.164 215.146H176.164C176.164 213.411 175.852 211.926 175.031 210.901L173.469 212.15ZM174.164 215.146V221H176.164V215.146H174.164ZM175.164 220H173.196V222H175.164V220ZM174.167 220.763L173.816 219.322L171.873 219.796L172.224 221.237L174.167 220.763ZM172.009 219.008C171.716 219.453 171.402 219.746 171.081 219.93L172.076 221.665C172.716 221.299 173.246 220.766 173.679 220.109L172.009 219.008ZM171.077 219.933C170.799 220.094 170.379 220.211 169.75 220.211V222.211C170.61 222.211 171.408 222.053 172.08 221.663L171.077 219.933ZM169.75 220.211C168.778 220.211 168.163 219.968 167.768 219.609L166.424 221.09C167.295 221.88 168.449 222.211 169.75 222.211V220.211ZM167.771 219.612C167.408 219.279 167.156 218.745 167.156 217.836H165.156C165.156 219.13 165.53 220.271 166.421 221.087L167.771 219.612ZM167.156 217.84C167.158 217.225 167.31 216.805 167.542 216.505C167.777 216.201 168.167 215.926 168.806 215.736L168.234 213.819C167.303 214.097 166.513 214.567 165.96 215.282C165.404 216.001 165.159 216.876 165.156 217.832L167.156 217.84ZM168.814 215.733C169.172 215.623 169.592 215.555 170.08 215.54L170.018 213.541C169.382 213.56 168.782 213.651 168.226 213.822L168.814 215.733ZM170.049 215.54C170.908 215.54 171.697 215.612 172.418 215.751L172.796 213.787C171.935 213.621 171.018 213.54 170.049 213.54V215.54ZM172.708 215.074L172.101 215.013L171.899 217.003L172.506 217.064L172.708 215.074ZM172.091 215.012L171.704 214.977L171.523 216.969L171.91 217.004L172.091 215.012ZM171.68 214.975C171.481 214.962 171.277 214.955 171.069 214.955V216.955C171.235 216.955 171.395 216.96 171.547 216.97L171.68 214.975ZM171.069 214.955C170.846 214.955 170.603 214.969 170.345 214.995L170.544 216.985C170.755 216.964 170.928 216.955 171.069 216.955V214.955ZM170.345 214.995C170.035 215.026 169.731 215.092 169.434 215.191L170.067 217.088C170.226 217.035 170.385 217.001 170.544 216.985L170.345 214.995ZM169.449 215.186C169.127 215.288 168.814 215.443 168.547 215.677L169.864 217.182C169.878 217.17 169.929 217.132 170.051 217.093L169.449 215.186ZM168.557 215.668C167.955 216.181 167.731 216.904 167.731 217.643H169.731C169.731 217.303 169.823 217.217 169.854 217.191L168.557 215.668ZM167.731 217.643C167.731 218.38 167.901 219.12 168.419 219.676C168.949 220.244 169.677 220.444 170.409 220.444V218.444C170.023 218.444 169.912 218.344 169.882 218.312C169.84 218.267 169.731 218.106 169.731 217.643H167.731ZM170.409 220.444C171.009 220.444 171.583 220.322 172.097 220.039L171.131 218.288C170.965 218.379 170.736 218.444 170.409 218.444V220.444ZM172.102 220.036C172.552 219.784 172.963 219.448 173.339 219.045L171.875 217.682C171.617 217.958 171.366 218.156 171.125 218.29L172.102 220.036ZM173.607 218.363V216.069H171.607V218.363H173.607ZM181.799 221V222H182.799V221H181.799ZM179.215 221H178.215V222H179.215V221ZM179.215 206.34L179.067 205.351L178.215 205.478V206.34H179.215ZM181.799 205.953H182.799V204.792L181.651 204.964L181.799 205.953ZM181.799 220H179.215V222H181.799V220ZM180.215 221V206.34H178.215V221H180.215ZM179.363 207.329L181.947 206.942L181.651 204.964L179.067 205.351L179.363 207.329ZM180.799 205.953V221H182.799V205.953H180.799ZM188.706 221V222H189.706V221H188.706ZM186.122 221H185.122V222H186.122V221ZM186.122 206.34L185.974 205.351L185.122 205.478V206.34H186.122ZM188.706 205.953H189.706V204.792L188.557 204.964L188.706 205.953ZM188.706 220H186.122V222H188.706V220ZM187.122 221V206.34H185.122V221H187.122ZM186.27 207.329L188.854 206.942L188.557 204.964L185.974 205.351L186.27 207.329ZM187.706 205.953V221H189.706V205.953H187.706ZM197.933 218.082L196.933 218.064L196.933 218.073V218.082H197.933ZM197.52 217.291L196.938 218.105L196.942 218.107L197.52 217.291ZM196.676 216.869L196.315 217.802L196.337 217.81L196.36 217.818L196.676 216.869ZM194.628 216.078L194.988 215.145L194.975 215.14L194.628 216.078ZM192.562 214.303L193.507 213.974L193.506 213.971L192.562 214.303ZM192.703 211.912L191.828 211.428L191.826 211.432L192.703 211.912ZM193.564 210.998L193.034 210.15L193.032 210.152L193.564 210.998ZM198.39 210.576L198.155 211.548L198.162 211.55L198.39 210.576ZM200.007 211.253L200.95 211.584L201.191 210.9L200.615 210.459L200.007 211.253ZM199.427 212.905L198.832 213.709L199.921 214.516L200.37 213.237L199.427 212.905ZM198.064 212.316L197.795 213.279L197.806 213.282L198.064 212.316ZM194.988 213.881L194.403 214.692L194.403 214.692L194.988 213.881ZM195.735 214.241L196.082 213.303L196.026 213.282L195.967 213.268L195.735 214.241ZM197.423 214.865L197.076 215.803L197.084 215.806L197.423 214.865ZM199.708 216.219L198.937 216.855L198.943 216.863L199.708 216.219ZM199.154 220.438L198.576 219.622L198.572 219.624L199.154 220.438ZM192.448 220.209L191.503 219.882L191.264 220.575L191.852 221.012L192.448 220.209ZM193.028 218.53L193.642 217.741L192.539 216.883L192.083 218.204L193.028 218.53ZM196.184 220.444C196.869 220.444 197.567 220.316 198.11 219.893C198.7 219.433 198.933 218.766 198.933 218.082H196.933C196.933 218.204 196.913 218.263 196.904 218.285C196.897 218.3 196.893 218.306 196.881 218.315C196.841 218.346 196.664 218.444 196.184 218.444V220.444ZM198.932 218.1C198.945 217.422 198.632 216.854 198.098 216.475L196.942 218.107C196.958 218.119 196.964 218.125 196.962 218.124C196.96 218.122 196.954 218.114 196.947 218.101C196.94 218.088 196.936 218.075 196.934 218.065C196.932 218.056 196.933 218.055 196.933 218.064L198.932 218.1ZM198.101 216.477C197.766 216.238 197.393 216.054 196.992 215.92L196.36 217.818C196.591 217.895 196.781 217.993 196.938 218.105L198.101 216.477ZM197.036 215.936L194.988 215.145L194.268 217.011L196.315 217.802L197.036 215.936ZM194.975 215.14C194.02 214.786 193.641 214.358 193.507 213.974L191.618 214.632C192.023 215.795 193.021 216.549 194.281 217.016L194.975 215.14ZM193.506 213.971C193.442 213.791 193.396 213.526 193.396 213.151H191.396C191.396 213.679 191.46 214.182 191.619 214.635L193.506 213.971ZM193.396 213.151C193.396 212.858 193.46 212.612 193.58 212.392L191.826 211.432C191.536 211.963 191.396 212.542 191.396 213.151H193.396ZM193.578 212.397C193.708 212.161 193.879 211.982 194.097 211.845L193.032 210.152C192.524 210.471 192.12 210.901 191.828 211.428L193.578 212.397ZM194.095 211.846C194.617 211.519 195.328 211.321 196.289 211.321V209.321C195.059 209.321 193.953 209.575 193.034 210.15L194.095 211.846ZM196.289 211.321C196.904 211.321 197.526 211.396 198.155 211.548L198.625 209.604C197.847 209.416 197.068 209.321 196.289 209.321V211.321ZM198.162 211.55C198.793 211.697 199.18 211.88 199.399 212.047L200.615 210.459C200.083 210.052 199.392 209.783 198.617 209.602L198.162 211.55ZM199.063 210.922L198.483 212.574L200.37 213.237L200.95 211.584L199.063 210.922ZM200.022 212.102C199.564 211.763 198.976 211.525 198.323 211.35L197.806 213.282C198.337 213.424 198.656 213.579 198.832 213.709L200.022 212.102ZM198.334 211.353C197.672 211.168 197.022 211.07 196.386 211.07V213.07C196.816 213.07 197.285 213.136 197.795 213.279L198.334 211.353ZM196.386 211.07C195.735 211.07 195.072 211.173 194.546 211.524C193.948 211.922 193.672 212.541 193.672 213.213H195.672C195.672 213.148 195.684 213.14 195.673 213.16C195.661 213.185 195.646 213.194 195.655 213.188C195.7 213.158 195.894 213.07 196.386 213.07V211.07ZM193.672 213.213C193.672 213.78 193.896 214.325 194.403 214.692L195.574 213.07C195.583 213.077 195.598 213.089 195.614 213.109C195.63 213.128 195.644 213.15 195.655 213.172C195.676 213.217 195.672 213.239 195.672 213.213H193.672ZM194.403 214.692C194.738 214.933 195.105 215.119 195.504 215.214L195.967 213.268C195.873 213.246 195.742 213.192 195.573 213.07L194.403 214.692ZM195.389 215.179L197.076 215.803L197.77 213.927L196.082 213.303L195.389 215.179ZM197.084 215.806C198.139 216.186 198.694 216.561 198.937 216.855L200.479 215.582C199.89 214.868 198.921 214.342 197.761 213.924L197.084 215.806ZM198.943 216.863C199.199 217.167 199.314 217.488 199.314 217.862H201.314C201.314 217.006 201.026 216.232 200.473 215.575L198.943 216.863ZM199.314 217.862C199.314 218.371 199.229 218.731 199.107 218.981L200.906 219.855C201.195 219.261 201.314 218.584 201.314 217.862H199.314ZM199.107 218.981C198.972 219.26 198.795 219.467 198.576 219.622L199.733 221.253C200.241 220.893 200.632 220.42 200.906 219.855L199.107 218.981ZM198.572 219.624C198.069 219.984 197.344 220.211 196.307 220.211V222.211C197.625 222.211 198.798 221.922 199.736 221.251L198.572 219.624ZM196.307 220.211C195.645 220.211 195.002 220.13 194.375 219.97L193.879 221.907C194.67 222.11 195.48 222.211 196.307 222.211V220.211ZM194.375 219.97C193.742 219.808 193.316 219.608 193.045 219.406L191.852 221.012C192.401 221.42 193.094 221.706 193.879 221.907L194.375 219.97ZM193.393 220.536L193.973 218.857L192.083 218.204L191.503 219.882L193.393 220.536ZM192.414 219.32C192.874 219.677 193.483 219.935 194.165 220.132L194.722 218.211C194.15 218.046 193.815 217.876 193.642 217.741L192.414 219.32ZM194.165 220.132C194.863 220.335 195.538 220.444 196.184 220.444V218.444C195.763 218.444 195.278 218.372 194.722 218.211L194.165 220.132Z" fill="#191919"/>
</svg>
